# xmcd
#
# Track frame offsets: 
#        150
#        13814
#        32130
#        44234
#        63807
#        80585
#        98678
#        114981
#        132245
#        148363
#        167754
#        183627
#        200338
#
# Disc length: 2875 seconds
#
# Revision: 2
# Processed by: cddbd v1.5.2PL0 Copyright (c) Steve Scherf et al.
# Submitted via: ExactAudioCopy v0.99pb4
#
DISCID=bb0b390d
DTITLE=Gabriella Cilmi - Ten
DYEAR=2010
DGENRE=Pop
TTITLE0=On A Mission
TTITLE1=Hearts Don't Lie
TTITLE2=What If You Knew
TTITLE3=Love Me Cos
TTITLE4=Defender
TTITLE5=Robots
TTITLE6=Super Hot
TTITLE7=Boys
TTITLE8=Invisible Girl
TTITLE9=Glue
TTITLE10=Let Me Know
TTITLE11=Super Man
TTITLE12=Sweet About Me (Twenty Ten  Version)
EXTD=
EXTT0=
EXTT1=
EXTT2=
EXTT3=
EXTT4=
EXTT5=
EXTT6=
EXTT7=
EXTT8=
EXTT9=
EXTT10=
EXTT11=
EXTT12=
PLAYORDER=
